M48
T1C0.0320
T2C0.0500
%
M47 File: Electrostatic GUI and Metering.cwz
G90
G05
M72
T1
X01750Y02425
X01650Y02425
X01375Y03025
X01675Y03025
X01750Y02425
X01525Y02400
X01650Y02425
X01350Y02375
X01350Y02575
X01250Y03050
X00950Y03050
X01000Y02925
X01300Y02925
X01000Y02800
X01300Y02800
X01250Y02700
X00950Y02700
X01875Y02200
X01875Y02500
X01325Y01200
X01325Y01500
X01750Y01325
X01850Y01100
X01850Y01400
X01425Y01200
X01425Y01000
X01575Y02150
X02050Y02575
X02050Y02300
X04075Y00775
X03975Y00775
X03875Y00775
X03775Y00775
X03675Y00775
X03575Y00775
X03475Y00775
X02550Y03275
X02250Y03275
X02275Y03000
X02275Y02725
X02100Y00800
X02400Y00800
X01150Y00650
X01450Y00650
X00650Y00650
X00950Y00650
X02325Y00900
X02125Y00900
X01700Y00650
X01550Y00650
X01125Y00750
X00950Y00750
X01400Y00550
X01700Y00550
X00800Y00550
X01100Y00550
X00525Y00775
X00825Y00775
X02775Y00625
X02575Y00625
X03375Y02850
X03475Y02850
X03575Y02850
X04575Y02700
X04575Y02600
X04475Y02600
X04475Y02700
X04375Y02700
X04275Y02700
X04175Y02700
X04075Y02700
X03975Y02700
X03875Y02700
X03775Y02700
X03675Y02700
X03575Y02700
X03275Y02700
X03175Y02700
X03075Y02700
X03075Y02600
X03175Y02600
X03275Y02600
X03475Y02600
X03575Y02600
X03675Y02600
X03775Y02600
X03875Y02600
X03975Y02600
X04075Y02600
X04175Y02600
X04275Y02600
X04375Y02600
X02575Y01300
X02675Y01300
X02775Y01300
X02875Y01300
X02975Y01300
X03075Y01300
X03175Y01300
X03275Y01300
X03375Y01300
X03475Y01300
X03575Y01300
X03675Y01300
X03775Y01300
X03875Y01300
X03975Y01300
X04075Y01300
X03775Y01400
X03675Y01400
X03575Y01400
X03475Y01400
X03375Y01400
X03275Y01400
X03175Y01400
X03075Y01400
X02975Y01400
X02875Y01400
X02675Y01700
X02575Y01700
X02675Y01600
X02675Y01500
X02675Y01400
X02575Y01400
X02575Y01500
X02575Y01600
X03875Y01400
X03975Y01400
X04075Y01400
X02775Y01400
X02975Y02700
X02975Y02600
X02875Y02700
X02875Y02600
X02775Y02700
X02775Y02600
X02675Y02700
X02675Y02600
X02575Y02700
X02575Y02600
X03375Y03425
X03475Y03425
X03575Y03425
X00850Y01800
X00850Y01900
X00850Y02000
X00600Y01175
X00600Y01275
X00600Y01375
X00325Y00650
X00325Y00750
X00325Y00850
X00825Y02950
X00825Y03250
X00725Y02950
X00725Y03250
X00625Y02950
X00625Y03250
X00950Y01275
X01250Y01275
X01300Y01850
X01200Y01850
X01200Y01850
X01300Y01850
X00650Y01525
X00650Y02050
X00550Y01525
X00550Y02050
X00450Y03100
X00250Y03100
X00725Y02775
X00425Y02775
X00925Y01375
X00925Y01675
X01025Y01375
X01025Y01675
X00825Y01175
X00825Y01475
X01300Y02100
X01300Y02200
X01300Y02100
X01300Y02200
X02150Y03075
X02150Y03075
X02050Y03075
X02050Y03075
X01775Y03125
X01775Y03025
X01775Y03125
X01775Y03025
X01675Y03275
X01575Y03275
X01675Y03275
X01575Y03275
X01425Y03300
X01425Y03200
X01425Y03200
X01425Y03300
X01475Y02850
X01475Y02750
X01475Y02850
X01475Y02750
X02250Y02500
X02250Y02400
X02250Y02300
X02250Y02500
X02250Y02400
X02250Y02300
X02250Y02200
X02250Y02100
X02250Y02000
X02250Y01900
X02250Y01800
X02250Y02200
X02250Y02100
X02250Y02000
X02250Y01900
X02250Y01800
X02625Y02500
X02625Y02500
X02625Y02400
X02625Y02300
X02625Y02200
X02625Y02100
X02625Y02000
X02625Y01900
X02625Y01800
X02625Y02400
X02625Y02300
X02625Y02200
X02625Y02100
X02625Y02000
X02625Y01900
X02625Y01800
X04075Y00775
X03975Y00775
X03875Y00775
X03775Y00775
X03675Y00775
X03575Y00775
X03475Y00775
X04075Y00775
X03975Y00775
X03875Y00775
X03775Y00775
X03675Y00775
X03575Y00775
X03475Y00775
X03375Y00775
X03275Y00775
X03175Y00775
X03075Y00775
X02975Y00775
X02875Y00775
X02775Y00775
X02675Y00775
X03375Y00775
X03275Y00775
X03175Y00775
X03075Y00775
X02975Y00775
X02875Y00775
X02775Y00775
X02675Y00775
X03025Y00400
X03025Y00300
X03025Y00400
X03025Y00300
X01750Y01850
X01750Y01950
X01750Y01950
X01750Y01850
X01925Y01475
X01925Y01775
X01550Y01275
X01650Y01275
X01550Y01275
X01650Y01275
X01350Y01600
X01250Y01600
X01350Y01600
X01250Y01600
X01475Y01825
X01475Y02125
X01750Y01125
X01900Y02900
X01900Y02800
X01900Y02700
X01900Y02600
X01600Y02900
X01600Y02800
X01600Y02700
X01600Y02600
X01900Y02600
X01900Y02700
X01900Y02800
X01900Y02900
X01600Y02900
X01600Y02800
X01600Y02700
X01600Y02600
X01750Y01725
X01650Y01725
X01550Y01725
X01450Y01725
X01450Y01425
X01550Y01425
X01650Y01425
X01750Y01425
X01750Y01725
X01650Y01725
X01750Y01425
X01650Y01425
X01550Y01425
X01550Y01725
X01450Y01725
X01450Y01425
T2
X00975Y02300
X00975Y02500
X04525Y03175
X04325Y03175
X02425Y00300
X02225Y00300
X02025Y00300
X01825Y00300
X01625Y00300
X01425Y00300
X01225Y00300
X01025Y00300
X00825Y00300
X00625Y00300
X00425Y00300
X00225Y00300
X00325Y01950
X00325Y02150
X00325Y02350
X00325Y02550
X00325Y01550
X00325Y01750
X00325Y01150
X00325Y01350
M30
